<svg width="636.1" height="140.4" xmlns="http://www.w3.org/2000/svg" xml:space="preserve" version="1.1">
 <defs>
  <linearGradient y2="0.49992" x2="6.39299" y1="0.49992" x1="-2.59233" id="SVGID_1_">
   <stop stop-color="#DA8CFF" offset="0.0015"/>
   <stop stop-color="#9A55FF" offset="1"/>
  </linearGradient>
  <linearGradient y2="0.50013" x2="5.07299" y1="0.50013" x1="-3.5877" id="SVGID_2_">
   <stop stop-color="#DA8CFF" offset="0.0015"/>
   <stop stop-color="#9A55FF" offset="1"/>
  </linearGradient>
  <linearGradient y2="0.49965" x2="6.3684" y1="0.49965" x1="-8.12845" id="SVGID_3_">
   <stop stop-color="#DA8CFF" offset="0.0015"/>
   <stop stop-color="#9A55FF" offset="1"/>
  </linearGradient>
  <linearGradient y2="0.49902" x2="2.86914" y1="0.49902" x1="-5.3063" id="SVGID_4_">
   <stop stop-color="#DA8CFF" offset="0.0015"/>
   <stop stop-color="#9A55FF" offset="1"/>
  </linearGradient>
  <linearGradient y2="0.49991" x2="5.78062" y1="0.49991" x1="-22.30326" id="SVGID_5_">
   <stop stop-color="#DA8CFF" offset="0.0015"/>
   <stop stop-color="#9A55FF" offset="1"/>
  </linearGradient>
  <linearGradient y2="0.49888" x2="1.26113" y1="0.49888" x1="-7.2756" id="SVGID_6_">
   <stop stop-color="#DA8CFF" offset="0.0015"/>
   <stop stop-color="#9A55FF" offset="1"/>
  </linearGradient>
  <linearGradient y2="0.50042" x2="6.39919" y1="0.50042" x1="-0.14276" id="SVGID_7_">
   <stop stop-color="#DA8CFF" offset="0.0015"/>
   <stop stop-color="#9A55FF" offset="1"/>
  </linearGradient>
  <linearGradient y2="0.50068" x2="6.40814" y1="0.50068" x1="-0.14268" id="SVGID_8_">
   <stop stop-color="#DA8CFF" offset="0.0015"/>
   <stop stop-color="#9A55FF" offset="1"/>
  </linearGradient>
  <linearGradient y2="0.5006" x2="6.4083" y1="0.5006" x1="-0.14268" id="SVGID_9_">
   <stop stop-color="#DA8CFF" offset="0.0015"/>
   <stop stop-color="#9A55FF" offset="1"/>
  </linearGradient>
 </defs>
 <g>
  <title>Layer 1</title>
  <path id="svg_1" fill="url(#SVGID_1_)" d="m202.9,65.2l0,38.1l-23.9,0l0,-98l38.7,0c7.6,0 14.2,1.4 19.6,4.2c5.4,2.8 9.5,6.5 12.3,11c2.7,4.6 4.1,9.5 4.1,14.8c0,4.5 -1.1,9 -3.3,13.5c-2.2,4.5 -6,8.4 -11.4,11.6c-5.4,3.2 -12.5,4.8 -21.4,4.8l-14.7,0zm23.4,-21.4c2.1,-2.1 3.1,-5 3.1,-8.5c0,-3.4 -1.1,-6.3 -3.2,-8.5c-2.1,-2.2 -5,-3.3 -8.5,-3.3l-14.8,0l0,23.5l14.8,0c3.7,0 6.5,-1 8.6,-3.2z" class="st0"/>
  <path id="svg_2" fill="url(#SVGID_2_)" d="m340.9,25.4l0,77.9l-23.9,0l0,-11.5c-2.3,3.8 -5.5,6.8 -9.6,9c-4,2.2 -8.7,3.3 -14,3.3c-5.9,0 -11,-1.3 -15.6,-4c-4.5,-2.7 -8,-6.5 -10.6,-11.5c-2.6,-5 -3.8,-10.9 -3.8,-17.7l0,-45.5l23.7,0l0,42.3c0,5 1.3,8.9 4,11.7c2.7,2.7 6.3,4.1 11,4.1c4.7,0 8.3,-1.4 11,-4.1c2.7,-2.7 4,-6.6 4,-11.7l0,-42.3l23.8,0z" class="st1"/>
  <path id="svg_3" fill="url(#SVGID_3_)" d="m395.3,28.7c3.8,-2.7 8,-4.1 12.7,-4.1l0,24.3l-5.9,0c-5.5,0 -9.6,1.3 -12.4,3.9c-2.7,2.6 -4.1,7.2 -4.1,13.7l0,36.8l-23.9,0l0,-77.9l23.9,0l0,14.5c2.7,-4.7 5.9,-8.5 9.7,-11.2z" class="st2"/>
  <path id="svg_4" fill="url(#SVGID_4_)" d="m485.5,29.7c5.4,3.4 9.7,8.1 12.9,14.2c3.2,6 4.7,12.9 4.7,20.7c0,7.7 -1.6,14.6 -4.7,20.7c-3.2,6 -7.5,10.7 -12.9,14.1s-11.4,5 -17.8,5c-9.7,0 -17.3,-4.1 -22.9,-12.3l0,48.4l-23.8,0l0,-115l23.9,0l0,10.2c5.3,-7.3 12.9,-11 22.9,-11c6.4,-0.1 12.3,1.6 17.7,5zm-31.8,17.7c-2.6,1.4 -4.7,3.6 -6.4,6.4c-1.6,2.8 -2.4,6.4 -2.4,10.5c0,4.2 0.8,7.7 2.4,10.6c1.6,2.9 3.8,5 6.4,6.5c2.7,1.4 5.4,2.2 8.2,2.2c2.9,0 5.6,-0.7 8.2,-2.2c2.6,-1.4 4.7,-3.6 6.3,-6.4c1.6,-2.8 2.4,-6.4 2.4,-10.5c0,-4.2 -0.8,-7.7 -2.4,-10.6c-1.6,-2.9 -3.8,-5 -6.4,-6.5c-2.7,-1.4 -5.4,-2.2 -8.2,-2.2c-2.8,0 -5.5,0.7 -8.1,2.2z" class="st3"/>
  <path id="svg_5" fill="url(#SVGID_5_)" d="m542.3,0l0,103.3l-23.9,0l0,-103.3l23.9,0z" class="st4"/>
  <path id="svg_6" fill="url(#SVGID_6_)" d="m635.5,72.2l-53.6,0c0.5,3.4 2,6.3 4.6,8.4c2.6,2.2 5.9,3.3 9.8,3.3c3,0 5.2,-0.4 6.7,-1.3c1.5,-0.9 3.1,-2.3 4.7,-4.4l25.8,0c-2.2,7.8 -6.7,14.1 -13.4,18.9c-6.7,4.8 -14.7,7.2 -23.9,7.2c-7.4,0 -14.1,-1.6 -20,-4.9c-5.9,-3.3 -10.5,-7.9 -13.8,-14c-3.3,-6.1 -5,-13.1 -5,-21.1c0,-8 1.7,-15 5,-21c3.3,-6 7.9,-10.6 13.7,-13.8c5.9,-3.2 12.5,-4.8 20,-4.8c7.5,0 14.3,1.6 20.4,4.7c6,3.1 10.8,7.7 14.3,13.7c3.5,6 5.2,13.3 5.2,21.6c0.1,2.6 -0.1,5.1 -0.5,7.5zm-24.3,-15c-0.4,-3.6 -2,-6.6 -4.7,-8.9c-2.8,-2.3 -6.2,-3.4 -10.3,-3.4c-3.5,0 -6.6,1.1 -9.2,3.4c-2.6,2.3 -4.2,5.2 -4.9,8.9l29.1,0z" class="st5"/>
  <g id="svg_7">
   <g id="svg_8">
    <path id="svg_9" fill="url(#SVGID_7_)" d="m100.2,30l-47.1,-23.5c-1.2,-0.6 -2.5,-0.6 -3.7,0l-47.1,23.5c-1.4,0.7 -2.3,2.2 -2.3,3.7c0,1.6 0.9,3 2.3,3.7l47.1,23.6c0.6,0.3 1.2,0.4 1.9,0.4c0.6,0 1.3,-0.1 1.9,-0.4l47.1,-23.5c1.4,-0.7 2.3,-2.1 2.3,-3.7c-0.1,-1.6 -1,-3.1 -2.4,-3.8zm-49,22.7l-37.8,-19l37.8,-18.9l37.8,18.9l-37.8,19z" class="st6"/>
   </g>
  </g>
  <g id="svg_10">
   <g id="svg_11">
    <path id="svg_12" fill="url(#SVGID_8_)" d="m102,79c-1,-2 -3.5,-2.9 -5.6,-1.9l-45.2,22.7l-45.2,-22.7c-2,-1 -4.5,-0.2 -5.6,1.9c-1,2 -0.2,4.5 1.9,5.6l47.1,23.5c0.6,0.3 1.2,0.4 1.9,0.4c0.6,0 1.3,-0.1 1.9,-0.4l47.1,-23.5c1.9,-1.1 2.7,-3.6 1.7,-5.6z" class="st7"/>
   </g>
  </g>
  <g id="svg_13">
   <g id="svg_14">
    <path id="svg_15" fill="url(#SVGID_9_)" d="m102,55.4c-1,-2 -3.5,-2.9 -5.6,-1.9l-45.2,22.7l-45.2,-22.6c-2,-1 -4.5,-0.2 -5.6,1.9c-1,2 -0.2,4.5 1.9,5.6l47.1,23.5c0.6,0.3 1.2,0.4 1.9,0.4c0.6,0 1.3,-0.1 1.9,-0.4l47,-23.6c2,-1 2.8,-3.5 1.8,-5.6z" class="st8"/>
   </g>
  </g>
  <rect stroke="#000" id="svg_22" height="158" width="685.00007" y="-5.3" x="-28.05002" fill="#fff"/>
  <text transform="matrix(0.995533 0 0 1.00609 1.30465 5.62621)" stroke="#000" xml:space="preserve" text-anchor="start" font-family="Noto Sans JP" font-size="70" stroke-width="0" id="svg_23" y="48.39195" x="206.62993" fill="#239b23">Charity</text>
  <text transform="matrix(1.05402 0 0 1.06467 -6.26368 -8.29603)" stroke="#000" xml:space="preserve" text-anchor="start" font-family="Noto Sans JP" font-size="70" id="svg_27" y="115.07852" x="109.30878" stroke-width="0" fill="#239b23">Crowdfunding</text>
 </g>
</svg>